<svg xmlns="http://www.w3.org/2000/svg" version="1.1" xmlns:xlink="http://www.w3.org/1999/xlink" xmlns:svgjs="http://svgjs.dev/svgjs" width="1440" height="560" preserveAspectRatio="none" viewBox="0 0 1440 560"><g mask="url(&quot;#SvgjsMask1026&quot;)" fill="none"><path d="M-89.97 507.35L-89.97 507.35" stroke="rgba(0, 0, 0, 1)" stroke-width="1.5"></path><path d="M-89.97 507.35L72.11 519.98" stroke="rgba(0, 0, 0, 1)" stroke-width="1.5"></path><path d="M-103.03 678.36L-103.03 678.36" stroke="rgba(0, 0, 0, 1)" stroke-width="1.5"></path><path d="M-103.03 678.36L51.23 684.26" stroke="rgba(0, 0, 0, 1)" stroke-width="1.5"></path><path d="M-103.03 678.36L-89.97 507.35" stroke="rgba(0, 0, 0, 1)" stroke-width="1.5"></path><path d="M-103.03 678.36L72.11 519.98" stroke="rgba(0, 0, 0, 1)" stroke-width="1.5"></path><path d="M-103.03 678.36L190.62 507.55" stroke="rgba(0, 0, 0, 1)" stroke-width="1.5"></path><path d="M94.71 351.04L94.71 351.04" stroke="rgba(0, 0, 0, 1)" stroke-width="1.5"></path><path d="M94.71 351.04L202.17 381.63" stroke="rgba(0, 0, 0, 1)" stroke-width="1.5"></path><path d="M94.71 351.04L72.11 519.98" stroke="rgba(0, 0, 0, 1)" stroke-width="1.5"></path><path d="M94.71 351.04L190.62 507.55" stroke="rgba(0, 0, 0, 1)" stroke-width="1.5"></path><path d="M94.71 351.04L-89.97 507.35" stroke="rgba(0, 0, 0, 1)" stroke-width="1.5"></path><path d="M94.71 351.04L360.98 402.88" stroke="rgba(0, 0, 0, 1)" stroke-width="1.5"></path><path d="M72.11 519.98L72.11 519.98" stroke="rgba(0, 0, 0, 1)" stroke-width="1.5"></path><path d="M72.11 519.98L190.62 507.55" stroke="rgba(0, 0, 0, 1)" stroke-width="1.5"></path><path d="M72.11 519.98L51.23 684.26" stroke="rgba(0, 0, 0, 1)" stroke-width="1.5"></path><path d="M72.11 519.98L202.17 381.63" stroke="rgba(0, 0, 0, 1)" stroke-width="1.5"></path><path d="M51.23 684.26L51.23 684.26" stroke="rgba(0, 0, 0, 1)" stroke-width="1.5"></path><path d="M51.23 684.26L250.53 691.31" stroke="rgba(0, 0, 0, 1)" stroke-width="1.5"></path><path d="M51.23 684.26L190.62 507.55" stroke="rgba(0, 0, 0, 1)" stroke-width="1.5"></path><path d="M51.23 684.26L-89.97 507.35" stroke="rgba(0, 0, 0, 1)" stroke-width="1.5"></path><path d="M51.23 684.26L371.32 677.26" stroke="rgba(0, 0, 0, 1)" stroke-width="1.5"></path><path d="M202.17 381.63L202.17 381.63" stroke="rgba(0, 0, 0, 1)" stroke-width="1.5"></path><path d="M202.17 381.63L190.62 507.55" stroke="rgba(0, 0, 0, 1)" stroke-width="1.5"></path><path d="M202.17 381.63L360.98 402.88" stroke="rgba(0, 0, 0, 1)" stroke-width="1.5"></path><path d="M190.62 507.55L190.62 507.55" stroke="rgba(0, 0, 0, 1)" stroke-width="1.5"></path><path d="M190.62 507.55L375.88 551.62" stroke="rgba(0, 0, 0, 1)" stroke-width="1.5"></path><path d="M190.62 507.55L250.53 691.31" stroke="rgba(0, 0, 0, 1)" stroke-width="1.5"></path><path d="M190.62 507.55L360.98 402.88" stroke="rgba(0, 0, 0, 1)" stroke-width="1.5"></path><path d="M250.53 691.31L250.53 691.31" stroke="rgba(0, 0, 0, 1)" stroke-width="1.5"></path><path d="M250.53 691.31L371.32 677.26" stroke="rgba(0, 0, 0, 1)" stroke-width="1.5"></path><path d="M250.53 691.31L375.88 551.62" stroke="rgba(0, 0, 0, 1)" stroke-width="1.5"></path><path d="M250.53 691.31L72.11 519.98" stroke="rgba(0, 0, 0, 1)" stroke-width="1.5"></path><path d="M250.53 691.31L513.42 694.06" stroke="rgba(0, 0, 0, 1)" stroke-width="1.5"></path><path d="M360.98 402.88L360.98 402.88" stroke="rgba(0, 0, 0, 1)" stroke-width="1.5"></path><path d="M360.98 402.88L375.88 551.62" stroke="rgba(0, 0, 0, 1)" stroke-width="1.5"></path><path d="M360.98 402.88L503.28 341.19" stroke="rgba(0, 0, 0, 1)" stroke-width="1.5"></path><path d="M375.88 551.62L375.88 551.62" stroke="rgba(0, 0, 0, 1)" stroke-width="1.5"></path><path d="M375.88 551.62L371.32 677.26" stroke="rgba(0, 0, 0, 1)" stroke-width="1.5"></path><path d="M375.88 551.62L523.09 533.33" stroke="rgba(0, 0, 0, 1)" stroke-width="1.5"></path><path d="M371.32 677.26L371.32 677.26" stroke="rgba(0, 0, 0, 1)" stroke-width="1.5"></path><path d="M371.32 677.26L513.42 694.06" stroke="rgba(0, 0, 0, 1)" stroke-width="1.5"></path><path d="M503.28 341.19L503.28 341.19" stroke="rgba(0, 0, 0, 1)" stroke-width="1.5"></path><path d="M503.28 341.19L689.28 374.33" stroke="rgba(0, 0, 0, 1)" stroke-width="1.5"></path><path d="M523.09 533.33L523.09 533.33" stroke="rgba(0, 0, 0, 1)" stroke-width="1.5"></path><path d="M523.09 533.33L670.66 536.37" stroke="rgba(0, 0, 0, 1)" stroke-width="1.5"></path><path d="M523.09 533.33L513.42 694.06" stroke="rgba(0, 0, 0, 1)" stroke-width="1.5"></path><path d="M523.09 533.33L503.28 341.19" stroke="rgba(0, 0, 0, 1)" stroke-width="1.5"></path><path d="M513.42 694.06L513.42 694.06" stroke="rgba(0, 0, 0, 1)" stroke-width="1.5"></path><path d="M689.28 374.33L689.28 374.33" stroke="rgba(0, 0, 0, 1)" stroke-width="1.5"></path><path d="M689.28 374.33L812.04 378.4" stroke="rgba(0, 0, 0, 1)" stroke-width="1.5"></path><path d="M689.28 374.33L670.66 536.37" stroke="rgba(0, 0, 0, 1)" stroke-width="1.5"></path><path d="M670.66 536.37L670.66 536.37" stroke="rgba(0, 0, 0, 1)" stroke-width="1.5"></path><path d="M686.47 709.18L686.47 709.18" stroke="rgba(0, 0, 0, 1)" stroke-width="1.5"></path><path d="M686.47 709.18L811.74 711.48" stroke="rgba(0, 0, 0, 1)" stroke-width="1.5"></path><path d="M686.47 709.18L670.66 536.37" stroke="rgba(0, 0, 0, 1)" stroke-width="1.5"></path><path d="M686.47 709.18L513.42 694.06" stroke="rgba(0, 0, 0, 1)" stroke-width="1.5"></path><path d="M686.47 709.18L523.09 533.33" stroke="rgba(0, 0, 0, 1)" stroke-width="1.5"></path><path d="M686.47 709.18L946.89 702.8" stroke="rgba(0, 0, 0, 1)" stroke-width="1.5"></path><path d="M686.47 709.18L860.41 494.46" stroke="rgba(0, 0, 0, 1)" stroke-width="1.5"></path><path d="M812.04 378.4L812.04 378.4" stroke="rgba(0, 0, 0, 1)" stroke-width="1.5"></path><path d="M812.04 378.4L860.41 494.46" stroke="rgba(0, 0, 0, 1)" stroke-width="1.5"></path><path d="M812.04 378.4L970.91 380.41" stroke="rgba(0, 0, 0, 1)" stroke-width="1.5"></path><path d="M812.04 378.4L670.66 536.37" stroke="rgba(0, 0, 0, 1)" stroke-width="1.5"></path><path d="M812.04 378.4L994.9 505.47" stroke="rgba(0, 0, 0, 1)" stroke-width="1.5"></path><path d="M860.41 494.46L860.41 494.46" stroke="rgba(0, 0, 0, 1)" stroke-width="1.5"></path><path d="M860.41 494.46L994.9 505.47" stroke="rgba(0, 0, 0, 1)" stroke-width="1.5"></path><path d="M811.74 711.48L811.74 711.48" stroke="rgba(0, 0, 0, 1)" stroke-width="1.5"></path><path d="M811.74 711.48L946.89 702.8" stroke="rgba(0, 0, 0, 1)" stroke-width="1.5"></path><path d="M811.74 711.48L860.41 494.46" stroke="rgba(0, 0, 0, 1)" stroke-width="1.5"></path><path d="M993.36 -61.04L993.36 -61.04" stroke="rgba(0, 0, 0, 1)" stroke-width="1.5"></path><path d="M993.36 -61.04L941.54 53.27" stroke="rgba(0, 0, 0, 1)" stroke-width="1.5"></path><path d="M993.36 -61.04L1153.85 -84.73" stroke="rgba(0, 0, 0, 1)" stroke-width="1.5"></path><path d="M993.36 -61.04L1110.35 69.16" stroke="rgba(0, 0, 0, 1)" stroke-width="1.5"></path><path d="M941.54 53.27L941.54 53.27" stroke="rgba(0, 0, 0, 1)" stroke-width="1.5"></path><path d="M941.54 53.27L1110.35 69.16" stroke="rgba(0, 0, 0, 1)" stroke-width="1.5"></path><path d="M941.54 53.27L998.48 222.84" stroke="rgba(0, 0, 0, 1)" stroke-width="1.5"></path><path d="M941.54 53.27L1137.7 198.7" stroke="rgba(0, 0, 0, 1)" stroke-width="1.5"></path><path d="M941.54 53.27L1153.85 -84.73" stroke="rgba(0, 0, 0, 1)" stroke-width="1.5"></path><path d="M998.48 222.84L998.48 222.84" stroke="rgba(0, 0, 0, 1)" stroke-width="1.5"></path><path d="M998.48 222.84L1137.7 198.7" stroke="rgba(0, 0, 0, 1)" stroke-width="1.5"></path><path d="M998.48 222.84L970.91 380.41" stroke="rgba(0, 0, 0, 1)" stroke-width="1.5"></path><path d="M970.91 380.41L970.91 380.41" stroke="rgba(0, 0, 0, 1)" stroke-width="1.5"></path><path d="M970.91 380.41L994.9 505.47" stroke="rgba(0, 0, 0, 1)" stroke-width="1.5"></path><path d="M970.91 380.41L860.41 494.46" stroke="rgba(0, 0, 0, 1)" stroke-width="1.5"></path><path d="M970.91 380.41L1131.95 347.26" stroke="rgba(0, 0, 0, 1)" stroke-width="1.5"></path><path d="M970.91 380.41L1107.47 530.82" stroke="rgba(0, 0, 0, 1)" stroke-width="1.5"></path><path d="M994.9 505.47L994.9 505.47" stroke="rgba(0, 0, 0, 1)" stroke-width="1.5"></path><path d="M994.9 505.47L1107.47 530.82" stroke="rgba(0, 0, 0, 1)" stroke-width="1.5"></path><path d="M994.9 505.47L1111.02 653.87" stroke="rgba(0, 0, 0, 1)" stroke-width="1.5"></path><path d="M994.9 505.47L946.89 702.8" stroke="rgba(0, 0, 0, 1)" stroke-width="1.5"></path><path d="M946.89 702.8L946.89 702.8" stroke="rgba(0, 0, 0, 1)" stroke-width="1.5"></path><path d="M946.89 702.8L1111.02 653.87" stroke="rgba(0, 0, 0, 1)" stroke-width="1.5"></path><path d="M1153.85 -84.73L1153.85 -84.73" stroke="rgba(0, 0, 0, 1)" stroke-width="1.5"></path><path d="M1153.85 -84.73L1110.35 69.16" stroke="rgba(0, 0, 0, 1)" stroke-width="1.5"></path><path d="M1153.85 -84.73L1241.78 50.5" stroke="rgba(0, 0, 0, 1)" stroke-width="1.5"></path><path d="M1153.85 -84.73L1425.33 -78.43" stroke="rgba(0, 0, 0, 1)" stroke-width="1.5"></path><path d="M1110.35 69.16L1110.35 69.16" stroke="rgba(0, 0, 0, 1)" stroke-width="1.5"></path><path d="M1110.35 69.16L1137.7 198.7" stroke="rgba(0, 0, 0, 1)" stroke-width="1.5"></path><path d="M1110.35 69.16L1241.78 50.5" stroke="rgba(0, 0, 0, 1)" stroke-width="1.5"></path><path d="M1137.7 198.7L1137.7 198.7" stroke="rgba(0, 0, 0, 1)" stroke-width="1.5"></path><path d="M1131.95 347.26L1131.95 347.26" stroke="rgba(0, 0, 0, 1)" stroke-width="1.5"></path><path d="M1131.95 347.26L1137.7 198.7" stroke="rgba(0, 0, 0, 1)" stroke-width="1.5"></path><path d="M1131.95 347.26L1292.2 389.13" stroke="rgba(0, 0, 0, 1)" stroke-width="1.5"></path><path d="M1131.95 347.26L998.48 222.84" stroke="rgba(0, 0, 0, 1)" stroke-width="1.5"></path><path d="M1107.47 530.82L1107.47 530.82" stroke="rgba(0, 0, 0, 1)" stroke-width="1.5"></path><path d="M1107.47 530.82L1111.02 653.87" stroke="rgba(0, 0, 0, 1)" stroke-width="1.5"></path><path d="M1111.02 653.87L1111.02 653.87" stroke="rgba(0, 0, 0, 1)" stroke-width="1.5"></path><path d="M1241.78 50.5L1241.78 50.5" stroke="rgba(0, 0, 0, 1)" stroke-width="1.5"></path><path d="M1288.96 229.45L1288.96 229.45" stroke="rgba(0, 0, 0, 1)" stroke-width="1.5"></path><path d="M1288.96 229.45L1429.52 227.96" stroke="rgba(0, 0, 0, 1)" stroke-width="1.5"></path><path d="M1288.96 229.45L1137.7 198.7" stroke="rgba(0, 0, 0, 1)" stroke-width="1.5"></path><path d="M1288.96 229.45L1292.2 389.13" stroke="rgba(0, 0, 0, 1)" stroke-width="1.5"></path><path d="M1292.2 389.13L1292.2 389.13" stroke="rgba(0, 0, 0, 1)" stroke-width="1.5"></path><path d="M1292.2 389.13L1251.32 502.78" stroke="rgba(0, 0, 0, 1)" stroke-width="1.5"></path><path d="M1292.2 389.13L1445.27 368.96" stroke="rgba(0, 0, 0, 1)" stroke-width="1.5"></path><path d="M1251.32 502.78L1251.32 502.78" stroke="rgba(0, 0, 0, 1)" stroke-width="1.5"></path><path d="M1251.32 502.78L1107.47 530.82" stroke="rgba(0, 0, 0, 1)" stroke-width="1.5"></path><path d="M1251.32 502.78L1301.72 682.54" stroke="rgba(0, 0, 0, 1)" stroke-width="1.5"></path><path d="M1251.32 502.78L1131.95 347.26" stroke="rgba(0, 0, 0, 1)" stroke-width="1.5"></path><path d="M1251.32 502.78L1454.53 501.53" stroke="rgba(0, 0, 0, 1)" stroke-width="1.5"></path><path d="M1301.72 682.54L1301.72 682.54" stroke="rgba(0, 0, 0, 1)" stroke-width="1.5"></path><path d="M1301.72 682.54L1390.16 684.65" stroke="rgba(0, 0, 0, 1)" stroke-width="1.5"></path><path d="M1301.72 682.54L1111.02 653.87" stroke="rgba(0, 0, 0, 1)" stroke-width="1.5"></path><path d="M1301.72 682.54L1454.53 501.53" stroke="rgba(0, 0, 0, 1)" stroke-width="1.5"></path><path d="M1425.33 -78.43L1425.33 -78.43" stroke="rgba(0, 0, 0, 1)" stroke-width="1.5"></path><path d="M1425.33 -78.43L1408.14 85.81" stroke="rgba(0, 0, 0, 1)" stroke-width="1.5"></path><path d="M1425.33 -78.43L1591.75 60.1" stroke="rgba(0, 0, 0, 1)" stroke-width="1.5"></path><path d="M1425.33 -78.43L1241.78 50.5" stroke="rgba(0, 0, 0, 1)" stroke-width="1.5"></path><path d="M1425.33 -78.43L1429.52 227.96" stroke="rgba(0, 0, 0, 1)" stroke-width="1.5"></path><path d="M1408.14 85.81L1408.14 85.81" stroke="rgba(0, 0, 0, 1)" stroke-width="1.5"></path><path d="M1408.14 85.81L1429.52 227.96" stroke="rgba(0, 0, 0, 1)" stroke-width="1.5"></path><path d="M1408.14 85.81L1241.78 50.5" stroke="rgba(0, 0, 0, 1)" stroke-width="1.5"></path><path d="M1408.14 85.81L1591.75 60.1" stroke="rgba(0, 0, 0, 1)" stroke-width="1.5"></path><path d="M1408.14 85.81L1288.96 229.45" stroke="rgba(0, 0, 0, 1)" stroke-width="1.5"></path><path d="M1429.52 227.96L1429.52 227.96" stroke="rgba(0, 0, 0, 1)" stroke-width="1.5"></path><path d="M1429.52 227.96L1445.27 368.96" stroke="rgba(0, 0, 0, 1)" stroke-width="1.5"></path><path d="M1445.27 368.96L1445.27 368.96" stroke="rgba(0, 0, 0, 1)" stroke-width="1.5"></path><path d="M1445.27 368.96L1553.62 358.45" stroke="rgba(0, 0, 0, 1)" stroke-width="1.5"></path><path d="M1445.27 368.96L1454.53 501.53" stroke="rgba(0, 0, 0, 1)" stroke-width="1.5"></path><path d="M1445.27 368.96L1555.93 500.94" stroke="rgba(0, 0, 0, 1)" stroke-width="1.5"></path><path d="M1445.27 368.96L1577.1 242.54" stroke="rgba(0, 0, 0, 1)" stroke-width="1.5"></path><path d="M1454.53 501.53L1454.53 501.53" stroke="rgba(0, 0, 0, 1)" stroke-width="1.5"></path><path d="M1454.53 501.53L1555.93 500.94" stroke="rgba(0, 0, 0, 1)" stroke-width="1.5"></path><path d="M1454.53 501.53L1553.62 358.45" stroke="rgba(0, 0, 0, 1)" stroke-width="1.5"></path><path d="M1454.53 501.53L1390.16 684.65" stroke="rgba(0, 0, 0, 1)" stroke-width="1.5"></path><path d="M1454.53 501.53L1292.2 389.13" stroke="rgba(0, 0, 0, 1)" stroke-width="1.5"></path><path d="M1390.16 684.65L1390.16 684.65" stroke="rgba(0, 0, 0, 1)" stroke-width="1.5"></path><path d="M1390.16 684.65L1600.45 644.6" stroke="rgba(0, 0, 0, 1)" stroke-width="1.5"></path><path d="M1390.16 684.65L1251.32 502.78" stroke="rgba(0, 0, 0, 1)" stroke-width="1.5"></path><path d="M1390.16 684.65L1555.93 500.94" stroke="rgba(0, 0, 0, 1)" stroke-width="1.5"></path><path d="M1591.75 60.1L1591.75 60.1" stroke="rgba(0, 0, 0, 1)" stroke-width="1.5"></path><path d="M1591.75 60.1L1577.1 242.54" stroke="rgba(0, 0, 0, 1)" stroke-width="1.5"></path><path d="M1577.1 242.54L1577.1 242.54" stroke="rgba(0, 0, 0, 1)" stroke-width="1.5"></path><path d="M1577.1 242.54L1553.62 358.45" stroke="rgba(0, 0, 0, 1)" stroke-width="1.5"></path><path d="M1577.1 242.54L1429.52 227.96" stroke="rgba(0, 0, 0, 1)" stroke-width="1.5"></path><path d="M1553.62 358.45L1553.62 358.45" stroke="rgba(0, 0, 0, 1)" stroke-width="1.5"></path><path d="M1555.93 500.94L1555.93 500.94" stroke="rgba(0, 0, 0, 1)" stroke-width="1.5"></path><path d="M1555.93 500.94L1553.62 358.45" stroke="rgba(0, 0, 0, 1)" stroke-width="1.5"></path><path d="M1555.93 500.94L1600.45 644.6" stroke="rgba(0, 0, 0, 1)" stroke-width="1.5"></path><path d="M1555.93 500.94L1577.1 242.54" stroke="rgba(0, 0, 0, 1)" stroke-width="1.5"></path><path d="M1600.45 644.6L1600.45 644.6" stroke="rgba(0, 0, 0, 1)" stroke-width="1.5"></path><path d="M1600.45 644.6L1454.53 501.53" stroke="rgba(0, 0, 0, 1)" stroke-width="1.5"></path><path d="M1600.45 644.6L1553.62 358.45" stroke="rgba(0, 0, 0, 1)" stroke-width="1.5"></path><path d="M1600.45 644.6L1301.72 682.54" stroke="rgba(0, 0, 0, 1)" stroke-width="1.5"></path><path d="M1600.45 644.6L1445.27 368.96" stroke="rgba(0, 0, 0, 1)" stroke-width="1.5"></path><circle r="5" cx="-89.97" cy="507.35" fill="rgba(0, 0, 0, 1)"></circle><circle r="5" cx="-103.03" cy="678.36" fill="rgba(0, 0, 0, 1)"></circle><circle r="5" cx="94.71" cy="351.04" fill="rgba(0, 0, 0, 1)"></circle><circle r="5" cx="72.11" cy="519.98" fill="rgba(0, 0, 0, 1)"></circle><circle r="5" cx="51.23" cy="684.26" fill="rgba(0, 0, 0, 1)"></circle><circle r="5" cx="202.17" cy="381.63" fill="rgba(0, 0, 0, 1)"></circle><circle r="5" cx="190.62" cy="507.55" fill="rgba(0, 0, 0, 1)"></circle><circle r="5" cx="250.53" cy="691.31" fill="rgba(0, 0, 0, 1)"></circle><circle r="5" cx="360.98" cy="402.88" fill="rgba(0, 0, 0, 1)"></circle><circle r="5" cx="375.88" cy="551.62" fill="rgba(0, 0, 0, 1)"></circle><circle r="5" cx="371.32" cy="677.26" fill="rgba(0, 0, 0, 1)"></circle><circle r="5" cx="503.28" cy="341.19" fill="rgba(0, 0, 0, 1)"></circle><circle r="5" cx="523.09" cy="533.33" fill="rgba(0, 0, 0, 1)"></circle><circle r="5" cx="513.42" cy="694.06" fill="rgba(0, 0, 0, 1)"></circle><circle r="5" cx="689.28" cy="374.33" fill="rgba(0, 0, 0, 1)"></circle><circle r="5" cx="670.66" cy="536.37" fill="rgba(0, 0, 0, 1)"></circle><circle r="5" cx="686.47" cy="709.18" fill="rgba(0, 0, 0, 1)"></circle><circle r="5" cx="812.04" cy="378.4" fill="rgba(0, 0, 0, 1)"></circle><circle r="5" cx="860.41" cy="494.46" fill="rgba(0, 0, 0, 1)"></circle><circle r="5" cx="811.74" cy="711.48" fill="rgba(0, 0, 0, 1)"></circle><circle r="5" cx="993.36" cy="-61.04" fill="rgba(0, 0, 0, 1)"></circle><circle r="5" cx="941.54" cy="53.27" fill="rgba(0, 0, 0, 1)"></circle><circle r="5" cx="998.48" cy="222.84" fill="rgba(0, 0, 0, 1)"></circle><circle r="5" cx="970.91" cy="380.41" fill="rgba(0, 0, 0, 1)"></circle><circle r="5" cx="994.9" cy="505.47" fill="rgba(0, 0, 0, 1)"></circle><circle r="5" cx="946.89" cy="702.8" fill="rgba(0, 0, 0, 1)"></circle><circle r="5" cx="1153.85" cy="-84.73" fill="rgba(0, 0, 0, 1)"></circle><circle r="5" cx="1110.35" cy="69.16" fill="rgba(0, 0, 0, 1)"></circle><circle r="5" cx="1137.7" cy="198.7" fill="rgba(0, 0, 0, 1)"></circle><circle r="5" cx="1131.95" cy="347.26" fill="rgba(0, 0, 0, 1)"></circle><circle r="5" cx="1107.47" cy="530.82" fill="rgba(0, 0, 0, 1)"></circle><circle r="5" cx="1111.02" cy="653.87" fill="rgba(0, 0, 0, 1)"></circle><circle r="5" cx="1241.78" cy="50.5" fill="rgba(0, 0, 0, 1)"></circle><circle r="5" cx="1288.96" cy="229.45" fill="rgba(0, 0, 0, 1)"></circle><circle r="5" cx="1292.2" cy="389.13" fill="rgba(0, 0, 0, 1)"></circle><circle r="5" cx="1251.32" cy="502.78" fill="rgba(0, 0, 0, 1)"></circle><circle r="5" cx="1301.72" cy="682.54" fill="rgba(0, 0, 0, 1)"></circle><circle r="5" cx="1425.33" cy="-78.43" fill="rgba(0, 0, 0, 1)"></circle><circle r="5" cx="1408.14" cy="85.81" fill="rgba(0, 0, 0, 1)"></circle><circle r="5" cx="1429.52" cy="227.96" fill="rgba(0, 0, 0, 1)"></circle><circle r="5" cx="1445.27" cy="368.96" fill="rgba(0, 0, 0, 1)"></circle><circle r="5" cx="1454.53" cy="501.53" fill="rgba(0, 0, 0, 1)"></circle><circle r="5" cx="1390.16" cy="684.65" fill="rgba(0, 0, 0, 1)"></circle><circle r="5" cx="1591.75" cy="60.1" fill="rgba(0, 0, 0, 1)"></circle><circle r="5" cx="1577.1" cy="242.54" fill="rgba(0, 0, 0, 1)"></circle><circle r="5" cx="1553.62" cy="358.45" fill="rgba(0, 0, 0, 1)"></circle><circle r="5" cx="1555.93" cy="500.94" fill="rgba(0, 0, 0, 1)"></circle><circle r="5" cx="1600.45" cy="644.6" fill="rgba(0, 0, 0, 1)"></circle><path d="M-56.38 659.54L-56.38 659.54" stroke="hsl(0, 0%, 100%)" stroke-width="1.5"></path><path d="M-56.38 659.54L-76.41 501.36" stroke="hsl(0, 0%, 100%)" stroke-width="1.5"></path><path d="M-56.38 659.54L110.5 688.04" stroke="hsl(0, 0%, 100%)" stroke-width="1.5"></path><path d="M242.12 529.87L242.12 529.87" stroke="hsl(0, 0%, 100%)" stroke-width="1.5"></path><path d="M242.12 529.87L189.09 639.29" stroke="hsl(0, 0%, 100%)" stroke-width="1.5"></path><path d="M242.12 529.87L84.96 525.22" stroke="hsl(0, 0%, 100%)" stroke-width="1.5"></path><path d="M242.12 529.87L403.82 544.66" stroke="hsl(0, 0%, 100%)" stroke-width="1.5"></path><path d="M242.12 529.87L392.02 648.36" stroke="hsl(0, 0%, 100%)" stroke-width="1.5"></path><path d="M242.12 529.87L110.5 688.04" stroke="hsl(0, 0%, 100%)" stroke-width="1.5"></path><path d="M242.12 529.87L494.07 528.81" stroke="hsl(0, 0%, 100%)" stroke-width="1.5"></path><path d="M392.02 648.36L392.02 648.36" stroke="hsl(0, 0%, 100%)" stroke-width="1.5"></path><path d="M392.02 648.36L403.82 544.66" stroke="hsl(0, 0%, 100%)" stroke-width="1.5"></path><path d="M392.02 648.36L527.98 688.76" stroke="hsl(0, 0%, 100%)" stroke-width="1.5"></path><path d="M494.07 528.81L494.07 528.81" stroke="hsl(0, 0%, 100%)" stroke-width="1.5"></path><path d="M494.07 528.81L403.82 544.66" stroke="hsl(0, 0%, 100%)" stroke-width="1.5"></path><path d="M494.07 528.81L495.92 407.43" stroke="hsl(0, 0%, 100%)" stroke-width="1.5"></path><path d="M494.07 528.81L646.03 553" stroke="hsl(0, 0%, 100%)" stroke-width="1.5"></path><path d="M494.07 528.81L392.02 648.36" stroke="hsl(0, 0%, 100%)" stroke-width="1.5"></path><path d="M796.97 374.52L796.97 374.52" stroke="hsl(0, 0%, 100%)" stroke-width="1.5"></path><path d="M796.97 374.52L664.27 380.31" stroke="hsl(0, 0%, 100%)" stroke-width="1.5"></path><path d="M796.97 374.52L795.45 528.54" stroke="hsl(0, 0%, 100%)" stroke-width="1.5"></path><path d="M796.97 374.52L968.73 352.9" stroke="hsl(0, 0%, 100%)" stroke-width="1.5"></path><path d="M796.97 374.52L964.26 528.52" stroke="hsl(0, 0%, 100%)" stroke-width="1.5"></path><path d="M1111.26 512.32L1111.26 512.32" stroke="hsl(0, 0%, 100%)" stroke-width="1.5"></path><path d="M1111.26 512.32L1110.34 384.1" stroke="hsl(0, 0%, 100%)" stroke-width="1.5"></path><path d="M1111.26 512.32L964.26 528.52" stroke="hsl(0, 0%, 100%)" stroke-width="1.5"></path><path d="M1111.26 512.32L1009.74 640.64" stroke="hsl(0, 0%, 100%)" stroke-width="1.5"></path><path d="M1111.26 512.32L1297.68 492.81" stroke="hsl(0, 0%, 100%)" stroke-width="1.5"></path><path d="M1261.24 94.58L1261.24 94.58" stroke="hsl(0, 0%, 100%)" stroke-width="1.5"></path><path d="M1261.24 94.58L1242.5 240.79" stroke="hsl(0, 0%, 100%)" stroke-width="1.5"></path><path d="M1261.24 94.58L1287.13 -108.86" stroke="hsl(0, 0%, 100%)" stroke-width="1.5"></path><path d="M1261.24 94.58L1135.21 257.38" stroke="hsl(0, 0%, 100%)" stroke-width="1.5"></path><path d="M1261.24 94.58L1415.88 -77.23" stroke="hsl(0, 0%, 100%)" stroke-width="1.5"></path><path d="M1261.24 94.58L1453.71 243.01" stroke="hsl(0, 0%, 100%)" stroke-width="1.5"></path><path d="M1261.24 94.58L1402.57 349.93" stroke="hsl(0, 0%, 100%)" stroke-width="1.5"></path><path d="M1402.57 349.93L1402.57 349.93" stroke="hsl(0, 0%, 100%)" stroke-width="1.5"></path><path d="M1402.57 349.93L1453.71 243.01" stroke="hsl(0, 0%, 100%)" stroke-width="1.5"></path><path d="M1402.57 349.93L1282.71 399.16" stroke="hsl(0, 0%, 100%)" stroke-width="1.5"></path><path d="M1402.57 349.93L1442.92 489.85" stroke="hsl(0, 0%, 100%)" stroke-width="1.5"></path><path d="M1402.57 349.93L1297.68 492.81" stroke="hsl(0, 0%, 100%)" stroke-width="1.5"></path><path d="M1402.57 349.93L1586.36 380.98" stroke="hsl(0, 0%, 100%)" stroke-width="1.5"></path><path d="M1402.57 349.93L1242.5 240.79" stroke="hsl(0, 0%, 100%)" stroke-width="1.5"></path><path d="M1606.38 45.11L1606.38 45.11" stroke="hsl(0, 0%, 100%)" stroke-width="1.5"></path><path d="M1606.38 45.11L1567.31 -81.77" stroke="hsl(0, 0%, 100%)" stroke-width="1.5"></path><path d="M1606.38 45.11L1564.58 232.41" stroke="hsl(0, 0%, 100%)" stroke-width="1.5"></path><path d="M1606.38 45.11L1415.88 -77.23" stroke="hsl(0, 0%, 100%)" stroke-width="1.5"></path><path d="M1606.38 45.11L1453.71 243.01" stroke="hsl(0, 0%, 100%)" stroke-width="1.5"></path><path d="M-76.41 501.36L-76.41 501.36" stroke="hsl(0, 0%, 100%)" stroke-width="1.5"></path><path d="M-76.41 501.36L84.96 525.22" stroke="hsl(0, 0%, 100%)" stroke-width="1.5"></path><path d="M-76.41 501.36L110.5 688.04" stroke="hsl(0, 0%, 100%)" stroke-width="1.5"></path><path d="M-76.41 501.36L189.09 639.29" stroke="hsl(0, 0%, 100%)" stroke-width="1.5"></path><path d="M-76.41 501.36L242.12 529.87" stroke="hsl(0, 0%, 100%)" stroke-width="1.5"></path><path d="M84.96 525.22L84.96 525.22" stroke="hsl(0, 0%, 100%)" stroke-width="1.5"></path><path d="M84.96 525.22L189.09 639.29" stroke="hsl(0, 0%, 100%)" stroke-width="1.5"></path><path d="M84.96 525.22L110.5 688.04" stroke="hsl(0, 0%, 100%)" stroke-width="1.5"></path><path d="M84.96 525.22L-56.38 659.54" stroke="hsl(0, 0%, 100%)" stroke-width="1.5"></path><path d="M110.5 688.04L110.5 688.04" stroke="hsl(0, 0%, 100%)" stroke-width="1.5"></path><path d="M110.5 688.04L189.09 639.29" stroke="hsl(0, 0%, 100%)" stroke-width="1.5"></path><path d="M189.09 639.29L189.09 639.29" stroke="hsl(0, 0%, 100%)" stroke-width="1.5"></path><path d="M403.82 544.66L403.82 544.66" stroke="hsl(0, 0%, 100%)" stroke-width="1.5"></path><path d="M403.82 544.66L495.92 407.43" stroke="hsl(0, 0%, 100%)" stroke-width="1.5"></path><path d="M403.82 544.66L527.98 688.76" stroke="hsl(0, 0%, 100%)" stroke-width="1.5"></path><path d="M403.82 544.66L189.09 639.29" stroke="hsl(0, 0%, 100%)" stroke-width="1.5"></path><path d="M495.92 407.43L495.92 407.43" stroke="hsl(0, 0%, 100%)" stroke-width="1.5"></path><path d="M495.92 407.43L664.27 380.31" stroke="hsl(0, 0%, 100%)" stroke-width="1.5"></path><path d="M527.98 688.76L527.98 688.76" stroke="hsl(0, 0%, 100%)" stroke-width="1.5"></path><path d="M527.98 688.76L494.07 528.81" stroke="hsl(0, 0%, 100%)" stroke-width="1.5"></path><path d="M527.98 688.76L695.98 648.82" stroke="hsl(0, 0%, 100%)" stroke-width="1.5"></path><path d="M664.27 380.31L664.27 380.31" stroke="hsl(0, 0%, 100%)" stroke-width="1.5"></path><path d="M664.27 380.31L646.03 553" stroke="hsl(0, 0%, 100%)" stroke-width="1.5"></path><path d="M646.03 553L646.03 553" stroke="hsl(0, 0%, 100%)" stroke-width="1.5"></path><path d="M646.03 553L695.98 648.82" stroke="hsl(0, 0%, 100%)" stroke-width="1.5"></path><path d="M646.03 553L795.45 528.54" stroke="hsl(0, 0%, 100%)" stroke-width="1.5"></path><path d="M646.03 553L527.98 688.76" stroke="hsl(0, 0%, 100%)" stroke-width="1.5"></path><path d="M646.03 553L495.92 407.43" stroke="hsl(0, 0%, 100%)" stroke-width="1.5"></path><path d="M695.98 648.82L695.98 648.82" stroke="hsl(0, 0%, 100%)" stroke-width="1.5"></path><path d="M695.98 648.82L791.06 708.28" stroke="hsl(0, 0%, 100%)" stroke-width="1.5"></path><path d="M795.45 528.54L795.45 528.54" stroke="hsl(0, 0%, 100%)" stroke-width="1.5"></path><path d="M795.45 528.54L695.98 648.82" stroke="hsl(0, 0%, 100%)" stroke-width="1.5"></path><path d="M795.45 528.54L964.26 528.52" stroke="hsl(0, 0%, 100%)" stroke-width="1.5"></path><path d="M795.45 528.54L791.06 708.28" stroke="hsl(0, 0%, 100%)" stroke-width="1.5"></path><path d="M791.06 708.28L791.06 708.28" stroke="hsl(0, 0%, 100%)" stroke-width="1.5"></path><path d="M791.06 708.28L646.03 553" stroke="hsl(0, 0%, 100%)" stroke-width="1.5"></path><path d="M968.73 352.9L968.73 352.9" stroke="hsl(0, 0%, 100%)" stroke-width="1.5"></path><path d="M968.73 352.9L1110.34 384.1" stroke="hsl(0, 0%, 100%)" stroke-width="1.5"></path><path d="M968.73 352.9L964.26 528.52" stroke="hsl(0, 0%, 100%)" stroke-width="1.5"></path><path d="M968.73 352.9L1135.21 257.38" stroke="hsl(0, 0%, 100%)" stroke-width="1.5"></path><path d="M964.26 528.52L964.26 528.52" stroke="hsl(0, 0%, 100%)" stroke-width="1.5"></path><path d="M964.26 528.52L1009.74 640.64" stroke="hsl(0, 0%, 100%)" stroke-width="1.5"></path><path d="M1009.74 640.64L1009.74 640.64" stroke="hsl(0, 0%, 100%)" stroke-width="1.5"></path><path d="M1009.74 640.64L1090.63 703.78" stroke="hsl(0, 0%, 100%)" stroke-width="1.5"></path><path d="M1135.21 257.38L1135.21 257.38" stroke="hsl(0, 0%, 100%)" stroke-width="1.5"></path><path d="M1135.21 257.38L1242.5 240.79" stroke="hsl(0, 0%, 100%)" stroke-width="1.5"></path><path d="M1135.21 257.38L1110.34 384.1" stroke="hsl(0, 0%, 100%)" stroke-width="1.5"></path><path d="M1135.21 257.38L1282.71 399.16" stroke="hsl(0, 0%, 100%)" stroke-width="1.5"></path><path d="M1135.21 257.38L1111.26 512.32" stroke="hsl(0, 0%, 100%)" stroke-width="1.5"></path><path d="M1110.34 384.1L1110.34 384.1" stroke="hsl(0, 0%, 100%)" stroke-width="1.5"></path><path d="M1110.34 384.1L1282.71 399.16" stroke="hsl(0, 0%, 100%)" stroke-width="1.5"></path><path d="M1090.63 703.78L1090.63 703.78" stroke="hsl(0, 0%, 100%)" stroke-width="1.5"></path><path d="M1090.63 703.78L1111.26 512.32" stroke="hsl(0, 0%, 100%)" stroke-width="1.5"></path><path d="M1090.63 703.78L964.26 528.52" stroke="hsl(0, 0%, 100%)" stroke-width="1.5"></path><path d="M1287.13 -108.86L1287.13 -108.86" stroke="hsl(0, 0%, 100%)" stroke-width="1.5"></path><path d="M1287.13 -108.86L1415.88 -77.23" stroke="hsl(0, 0%, 100%)" stroke-width="1.5"></path><path d="M1242.5 240.79L1242.5 240.79" stroke="hsl(0, 0%, 100%)" stroke-width="1.5"></path><path d="M1282.71 399.16L1282.71 399.16" stroke="hsl(0, 0%, 100%)" stroke-width="1.5"></path><path d="M1282.71 399.16L1297.68 492.81" stroke="hsl(0, 0%, 100%)" stroke-width="1.5"></path><path d="M1282.71 399.16L1242.5 240.79" stroke="hsl(0, 0%, 100%)" stroke-width="1.5"></path><path d="M1297.68 492.81L1297.68 492.81" stroke="hsl(0, 0%, 100%)" stroke-width="1.5"></path><path d="M1297.68 492.81L1442.92 489.85" stroke="hsl(0, 0%, 100%)" stroke-width="1.5"></path><path d="M1297.68 492.81L1308.55 665.45" stroke="hsl(0, 0%, 100%)" stroke-width="1.5"></path><path d="M1308.55 665.45L1308.55 665.45" stroke="hsl(0, 0%, 100%)" stroke-width="1.5"></path><path d="M1308.55 665.45L1436.61 647.09" stroke="hsl(0, 0%, 100%)" stroke-width="1.5"></path><path d="M1308.55 665.45L1442.92 489.85" stroke="hsl(0, 0%, 100%)" stroke-width="1.5"></path><path d="M1415.88 -77.23L1415.88 -77.23" stroke="hsl(0, 0%, 100%)" stroke-width="1.5"></path><path d="M1415.88 -77.23L1567.31 -81.77" stroke="hsl(0, 0%, 100%)" stroke-width="1.5"></path><path d="M1415.88 -77.23L1453.71 243.01" stroke="hsl(0, 0%, 100%)" stroke-width="1.5"></path><path d="M1453.71 243.01L1453.71 243.01" stroke="hsl(0, 0%, 100%)" stroke-width="1.5"></path><path d="M1453.71 243.01L1564.58 232.41" stroke="hsl(0, 0%, 100%)" stroke-width="1.5"></path><path d="M1442.92 489.85L1442.92 489.85" stroke="hsl(0, 0%, 100%)" stroke-width="1.5"></path><path d="M1442.92 489.85L1576.23 502.33" stroke="hsl(0, 0%, 100%)" stroke-width="1.5"></path><path d="M1442.92 489.85L1436.61 647.09" stroke="hsl(0, 0%, 100%)" stroke-width="1.5"></path><path d="M1442.92 489.85L1586.36 380.98" stroke="hsl(0, 0%, 100%)" stroke-width="1.5"></path><path d="M1436.61 647.09L1436.61 647.09" stroke="hsl(0, 0%, 100%)" stroke-width="1.5"></path><path d="M1567.31 -81.77L1567.31 -81.77" stroke="hsl(0, 0%, 100%)" stroke-width="1.5"></path><path d="M1567.31 -81.77L1287.13 -108.86" stroke="hsl(0, 0%, 100%)" stroke-width="1.5"></path><path d="M1567.31 -81.77L1564.58 232.41" stroke="hsl(0, 0%, 100%)" stroke-width="1.5"></path><path d="M1564.58 232.41L1564.58 232.41" stroke="hsl(0, 0%, 100%)" stroke-width="1.5"></path><path d="M1564.58 232.41L1586.36 380.98" stroke="hsl(0, 0%, 100%)" stroke-width="1.5"></path><path d="M1586.36 380.98L1586.36 380.98" stroke="hsl(0, 0%, 100%)" stroke-width="1.5"></path><path d="M1586.36 380.98L1576.23 502.33" stroke="hsl(0, 0%, 100%)" stroke-width="1.5"></path><path d="M1576.23 502.33L1576.23 502.33" stroke="hsl(0, 0%, 100%)" stroke-width="1.5"></path><path d="M1603.5 644.56L1603.5 644.56" stroke="hsl(0, 0%, 100%)" stroke-width="1.5"></path><path d="M1603.5 644.56L1576.23 502.33" stroke="hsl(0, 0%, 100%)" stroke-width="1.5"></path><path d="M1603.5 644.56L1436.61 647.09" stroke="hsl(0, 0%, 100%)" stroke-width="1.5"></path><path d="M1603.5 644.56L1442.92 489.85" stroke="hsl(0, 0%, 100%)" stroke-width="1.5"></path><path d="M1603.5 644.56L1586.36 380.98" stroke="hsl(0, 0%, 100%)" stroke-width="1.5"></path><path d="M1603.5 644.56L1308.55 665.45" stroke="hsl(0, 0%, 100%)" stroke-width="1.5"></path><path d="M1603.5 644.56L1297.68 492.81" stroke="hsl(0, 0%, 100%)" stroke-width="1.5"></path><circle r="25" cx="-56.38" cy="659.54" fill="url(&quot;#SvgjsRadialGradient1027&quot;)"></circle><circle r="25" cx="242.12" cy="529.87" fill="url(&quot;#SvgjsRadialGradient1027&quot;)"></circle><circle r="25" cx="392.02" cy="648.36" fill="url(&quot;#SvgjsRadialGradient1027&quot;)"></circle><circle r="25" cx="494.07" cy="528.81" fill="url(&quot;#SvgjsRadialGradient1027&quot;)"></circle><circle r="25" cx="796.97" cy="374.52" fill="url(&quot;#SvgjsRadialGradient1027&quot;)"></circle><circle r="25" cx="1111.26" cy="512.32" fill="url(&quot;#SvgjsRadialGradient1027&quot;)"></circle><circle r="25" cx="1261.24" cy="94.58" fill="url(&quot;#SvgjsRadialGradient1027&quot;)"></circle><circle r="25" cx="1402.57" cy="349.93" fill="url(&quot;#SvgjsRadialGradient1027&quot;)"></circle><circle r="25" cx="1606.38" cy="45.11" fill="url(&quot;#SvgjsRadialGradient1027&quot;)"></circle><circle r="5" cx="-76.41" cy="501.36" fill="#e3e3e3"></circle><circle r="5" cx="84.96" cy="525.22" fill="#e3e3e3"></circle><circle r="5" cx="110.5" cy="688.04" fill="#e3e3e3"></circle><circle r="5" cx="189.09" cy="639.29" fill="#e3e3e3"></circle><circle r="5" cx="403.82" cy="544.66" fill="#e3e3e3"></circle><circle r="5" cx="495.92" cy="407.43" fill="#e3e3e3"></circle><circle r="5" cx="527.98" cy="688.76" fill="#e3e3e3"></circle><circle r="5" cx="664.27" cy="380.31" fill="#e3e3e3"></circle><circle r="5" cx="646.03" cy="553" fill="#e3e3e3"></circle><circle r="5" cx="695.98" cy="648.82" fill="#e3e3e3"></circle><circle r="5" cx="795.45" cy="528.54" fill="#e3e3e3"></circle><circle r="5" cx="791.06" cy="708.28" fill="#e3e3e3"></circle><circle r="5" cx="968.73" cy="352.9" fill="#e3e3e3"></circle><circle r="5" cx="964.26" cy="528.52" fill="#e3e3e3"></circle><circle r="5" cx="1009.74" cy="640.64" fill="#e3e3e3"></circle><circle r="5" cx="1135.21" cy="257.38" fill="#e3e3e3"></circle><circle r="5" cx="1110.34" cy="384.1" fill="#e3e3e3"></circle><circle r="5" cx="1090.63" cy="703.78" fill="#e3e3e3"></circle><circle r="5" cx="1287.13" cy="-108.86" fill="#e3e3e3"></circle><circle r="5" cx="1242.5" cy="240.79" fill="#e3e3e3"></circle><circle r="5" cx="1282.71" cy="399.16" fill="#e3e3e3"></circle><circle r="5" cx="1297.68" cy="492.81" fill="#e3e3e3"></circle><circle r="5" cx="1308.55" cy="665.45" fill="#e3e3e3"></circle><circle r="5" cx="1415.88" cy="-77.23" fill="#e3e3e3"></circle><circle r="5" cx="1453.71" cy="243.01" fill="#e3e3e3"></circle><circle r="5" cx="1442.92" cy="489.85" fill="#e3e3e3"></circle><circle r="5" cx="1436.61" cy="647.09" fill="#e3e3e3"></circle><circle r="5" cx="1567.31" cy="-81.77" fill="#e3e3e3"></circle><circle r="5" cx="1564.58" cy="232.41" fill="#e3e3e3"></circle><circle r="5" cx="1586.36" cy="380.98" fill="#e3e3e3"></circle><circle r="5" cx="1576.23" cy="502.33" fill="#e3e3e3"></circle><circle r="5" cx="1603.5" cy="644.56" fill="#e3e3e3"></circle></g><defs><mask id="SvgjsMask1026"><rect width="1440" height="560" fill="#ffffff"></rect></mask><radialGradient id="SvgjsRadialGradient1027"><stop stop-color="#ffffff" offset="0.1"></stop><stop stop-color="rgba(198, 198, 198, 1)" offset="0.2"></stop><stop stop-color="rgba(198, 198, 198, 0)" offset="1"></stop></radialGradient></defs></svg>