<svg xmlns="http://www.w3.org/2000/svg" version="1.1" xmlns:xlink="http://www.w3.org/1999/xlink" xmlns:svgjs="http://svgjs.dev/svgjs" width="1440" height="560" preserveAspectRatio="none" viewBox="0 0 1440 560"><g mask="url(&quot;#SvgjsMask1061&quot;)" fill="none"><path d="M -488.54234242585665,182 C -200.54,233.2 375.46,450.6 951.4576575741434,438 C 1527.46,425.4 2293.75,145 2391.4576575741435,119 C 2489.17,93 1630.29,270.2 1440,308" stroke="rgba(144, 144, 144, 1)" stroke-width="2"></path><path d="M -2017.4334366377534,129 C -1729.43,205.6 -1153.43,535.6 -577.4334366377534,512 C -1.43,488.4 459.08,17.4 862.5665633622466,11 C 1266.05,4.6 1324.51,386.2 1440,480" stroke="rgba(144, 144, 144, 1)" stroke-width="2"></path><path d="M -1423.7256643256671,343 C -1135.73,315 -559.73,193.6 16.27433567433279,203 C 592.27,212.4 1171.53,396.8 1456.2743356743329,390 C 1741.02,383.2 1443.25,213.2 1440,169" stroke="rgba(144, 144, 144, 1)" stroke-width="2"></path><path d="M -2434.6295858838357,429 C -2146.63,392 -1570.63,235 -994.6295858838357,244 C -418.63,253 -41.56,506.6 445.3704141161643,474 C 932.3,441.4 1241.07,159.6 1440,81" stroke="rgba(144, 144, 144, 1)" stroke-width="2"></path></g><defs><mask id="SvgjsMask1061"><rect width="1440" height="560" fill="#ffffff"></rect></mask></defs></svg>